<svg xmlns="http://www.w3.org/2000/svg" x="0px" y="0px"
     width="50" height="50"
     viewBox="0 0 172 172"
     style=" fill:#000000;"><g fill="none" stroke="none" stroke-width="1" stroke-miterlimit="10" stroke-dasharray="" stroke-dashoffset="0" font-family="none" font-size="none" style="mix-blend-mode: normal"><path d="M0,172v-172h172v172z" fill="none"></path><g fill="#3498db"><path d="M68.29088,26.69784l-51.6,7.74c-1.6856,0.25456 -2.93088,1.69936 -2.93088,3.40216v41.28c0,1.90232 1.54112,3.44 3.44,3.44h51.6c1.89888,0 3.44,-1.53768 3.44,-3.44v-49.02c0,-1.00104 -0.43688,-1.95048 -1.19712,-2.60752c-0.7568,-0.65016 -1.76472,-0.93224 -2.752,-0.79464zM157.04288,14.59248c-0.7568,-0.65016 -1.76128,-0.93224 -2.75544,-0.79464l-72.24,10.836c-1.68216,0.25456 -2.92744,1.69936 -2.92744,3.40216v51.084c0,1.90232 1.54112,3.44 3.44,3.44h72.24c1.89888,0 3.44,-1.53768 3.44,-3.44v-61.92c0,-1.00104 -0.43688,-1.95048 -1.19712,-2.60752zM68.8,89.44h-51.6c-1.89888,0 -3.44,1.53768 -3.44,3.44v41.28c0,1.7028 1.24528,3.1476 2.93088,3.40216l51.6,7.74c0.172,0.02408 0.34056,0.03784 0.50912,0.03784c0.81872,0 1.6168,-0.2924 2.24288,-0.83248c0.76024,-0.65704 1.19712,-1.60648 1.19712,-2.60752v-49.02c0,-1.90232 -1.54112,-3.44 -3.44,-3.44zM154.8,89.44h-72.24c-1.89888,0 -3.44,1.53768 -3.44,3.44v51.084c0,1.7028 1.24528,3.1476 2.93088,3.40216l72.24,10.836c0.16856,0.02408 0.34056,0.03784 0.50912,0.03784c0.81872,0 1.6168,-0.2924 2.24288,-0.83248c0.76024,-0.65704 1.19712,-1.60648 1.19712,-2.60752v-61.92c0,-1.90232 -1.54112,-3.44 -3.44,-3.44z"></path></g></g></svg>